<mxfile host="app.diagrams.net" agent="Mozilla/5.0 (Windows NT 10.0; Win64; x64) AppleWebKit/537.36 (KHTML, like Gecko) Chrome/136.0.0.0 Safari/537.36" version="27.0.1">
  <diagram name="Page-1" id="FjvG7Zp8M_eq1Tx9WjSz">
    <mxGraphModel dx="1858" dy="1642" grid="1" gridSize="10" guides="1" tooltips="1" connect="1" arrows="1" fold="1" page="1" pageScale="1" pageWidth="850" pageHeight="1100" math="0" shadow="0">
      <root>
        <mxCell id="0" />
        <mxCell id="1" parent="0" />
        <mxCell id="t3S08rrrYDEJ7auxiFVG-1" value="" style="rounded=0;whiteSpace=wrap;html=1;" parent="1" vertex="1">
          <mxGeometry x="120" y="-670" width="540" height="640" as="geometry" />
        </mxCell>
        <mxCell id="gBRugr4fjGDLY0f3Lg7u-2" style="rounded=0;orthogonalLoop=1;jettySize=auto;html=1;exitX=1;exitY=0.3333333333333333;exitDx=0;exitDy=0;exitPerimeter=0;entryX=0;entryY=0.5;entryDx=0;entryDy=0;" edge="1" parent="1" source="t3S08rrrYDEJ7auxiFVG-2" target="t3S08rrrYDEJ7auxiFVG-4">
          <mxGeometry relative="1" as="geometry" />
        </mxCell>
        <mxCell id="t3S08rrrYDEJ7auxiFVG-2" value="&lt;div&gt;Student&lt;/div&gt;&lt;div&gt;&lt;br&gt;&lt;/div&gt;" style="shape=umlActor;verticalLabelPosition=bottom;verticalAlign=top;html=1;outlineConnect=0;" parent="1" vertex="1">
          <mxGeometry x="-50" y="-410" width="30" height="60" as="geometry" />
        </mxCell>
        <mxCell id="t3S08rrrYDEJ7auxiFVG-3" value="" style="ellipse;whiteSpace=wrap;html=1;" parent="1" vertex="1">
          <mxGeometry x="170" y="-650" width="130" height="60" as="geometry" />
        </mxCell>
        <mxCell id="t3S08rrrYDEJ7auxiFVG-4" value="" style="ellipse;whiteSpace=wrap;html=1;" parent="1" vertex="1">
          <mxGeometry x="170" y="-570" width="130" height="60" as="geometry" />
        </mxCell>
        <mxCell id="t3S08rrrYDEJ7auxiFVG-5" value="" style="ellipse;whiteSpace=wrap;html=1;" parent="1" vertex="1">
          <mxGeometry x="170" y="-480" width="130" height="60" as="geometry" />
        </mxCell>
        <mxCell id="t3S08rrrYDEJ7auxiFVG-6" value="" style="ellipse;whiteSpace=wrap;html=1;" parent="1" vertex="1">
          <mxGeometry x="170" y="-400" width="130" height="60" as="geometry" />
        </mxCell>
        <mxCell id="t3S08rrrYDEJ7auxiFVG-7" value="" style="ellipse;whiteSpace=wrap;html=1;" parent="1" vertex="1">
          <mxGeometry x="170" y="-310" width="130" height="60" as="geometry" />
        </mxCell>
        <mxCell id="gBRugr4fjGDLY0f3Lg7u-3" style="rounded=0;orthogonalLoop=1;jettySize=auto;html=1;exitX=1;exitY=0.3333333333333333;exitDx=0;exitDy=0;exitPerimeter=0;entryX=0;entryY=0.5;entryDx=0;entryDy=0;" edge="1" parent="1" target="t3S08rrrYDEJ7auxiFVG-5">
          <mxGeometry relative="1" as="geometry">
            <mxPoint x="-10" y="-380" as="sourcePoint" />
            <mxPoint x="180" y="-530" as="targetPoint" />
          </mxGeometry>
        </mxCell>
        <mxCell id="gBRugr4fjGDLY0f3Lg7u-4" style="rounded=0;orthogonalLoop=1;jettySize=auto;html=1;entryX=0;entryY=0.5;entryDx=0;entryDy=0;" edge="1" parent="1" target="t3S08rrrYDEJ7auxiFVG-6">
          <mxGeometry relative="1" as="geometry">
            <mxPoint x="-10" y="-370" as="sourcePoint" />
            <mxPoint x="190" y="-520" as="targetPoint" />
          </mxGeometry>
        </mxCell>
        <mxCell id="gBRugr4fjGDLY0f3Lg7u-5" style="rounded=0;orthogonalLoop=1;jettySize=auto;html=1;entryX=0.006;entryY=0.633;entryDx=0;entryDy=0;entryPerimeter=0;" edge="1" parent="1" target="t3S08rrrYDEJ7auxiFVG-7">
          <mxGeometry relative="1" as="geometry">
            <mxPoint x="-10" y="-360" as="sourcePoint" />
            <mxPoint x="200" y="-510" as="targetPoint" />
          </mxGeometry>
        </mxCell>
      </root>
    </mxGraphModel>
  </diagram>
</mxfile>
